<!--?xml version="1.0" standalone="no"?--><svg version="1.0" xmlns="http://www.w3.org/2000/svg" width="300.000000pt" height="300.000000pt" viewBox="0 0 300.000000 300.000000" preserveAspectRatio="xMidYMid meet">
<metadata>
  <rdf:rdf xmlns:rdf="http://www.w3.org/1999/02/22-rdf-syntax-ns#" xmlns:rdfs="http://www.w3.org/2000/01/rdf-schema#" xmlns:dc="http://purl.org/dc/elements/1.1/">
    <rdf:description dc:title="sharp scissors icon" dc:publisher="Hiox" dc:date="2015-03-14" dc:format="image/svg+xml" dc:language="en">
      <dc:creator>
        <rdf:bag>
          <rdf:li>svgimages.com</rdf:li>
        </rdf:bag>
      </dc:creator>
    </rdf:description>
  </rdf:rdf>
</metadata>
<g transform="translate(0.000000,300.000000) scale(0.100000,-0.100000)" fill="#111111" stroke="none">
<path d="M1156 2623 c3 -16 12 -53 20 -83 7 -30 25 -104 39 -165 14 -60 32
-137 40 -170 8 -33 26 -109 40 -170 14 -60 35 -148 46 -195 11 -47 26 -110 34
-140 8 -30 26 -104 40 -165 14 -60 28 -117 31 -125 3 -11 16 -16 40 -16 30 0
43 -8 75 -42 33 -35 39 -48 39 -86 0 -25 6 -63 14 -83 8 -21 26 -78 41 -128
15 -49 40 -128 56 -174 22 -67 26 -87 16 -102 -9 -15 -8 -24 5 -46 10 -16 22
-27 27 -26 6 2 24 -17 40 -41 42 -61 103 -107 151 -113 169 -23 260 142 184
331 -29 74 -81 128 -183 191 -95 59 -121 85 -191 185 -40 56 -69 89 -77 85
-15 -5 -13 -9 -78 160 -50 128 -89 229 -240 615 -175 448 -208 530 -212 530
-2 0 -1 -12 3 -27z m372 -1035 c33 -33 -10 -86 -54 -66 -42 19 -26 78 21 78
12 0 26 -5 33 -12z m243 -431 c9 -7 24 -27 33 -45 16 -32 16 -33 -8 -57 -36
-36 -61 -32 -85 12 -33 63 10 128 60 90z m185 -156 c74 -34 153 -155 157 -239
2 -62 -18 -107 -60 -133 -70 -43 -157 -17 -211 64 -86 128 -85 267 2 310 41
21 63 20 112 -2z" id="node1" class="node"></path>
<path d="M1477 1574 c-16 -16 -6 -35 16 -32 12 2 22 10 22 18 0 16 -26 25 -38
14z" id="node2" class="node"></path>
<path d="M1821 2623 c-7 -16 -26 -64 -43 -108 -16 -44 -62 -163 -102 -265
-146 -370 -166 -422 -166 -435 0 -17 70 -196 82 -210 4 -5 8 1 8 15 0 13 9 58
20 99 10 42 29 117 40 166 12 50 30 128 41 175 11 47 29 121 39 165 10 44 30
130 45 190 14 61 32 136 41 168 17 64 14 83 -5 40z" id="node3" class="node"></path>
<path d="M1372 1475 c-37 -101 -53 -133 -66 -131 -7 0 -47 -45 -89 -101 -47
-63 -93 -113 -119 -129 -125 -80 -147 -95 -177 -126 -70 -70 -103 -183 -87
-293 9 -57 60 -118 113 -136 87 -28 172 7 236 97 17 24 38 44 46 44 9 0 24 17
34 36 16 32 16 38 3 48 -13 10 -11 24 18 111 18 55 45 141 60 190 15 50 34
109 41 132 7 23 11 50 9 60 -3 10 7 36 21 57 26 38 26 39 11 85 -9 25 -20 62
-24 81 l-8 35 -22 -60z m-90 -330 c17 -39 -5 -103 -39 -111 -21 -6 -31 -1 -50
20 l-23 27 20 39 c28 56 72 68 92 25z m-149 -139 c41 -17 63 -42 75 -88 23
-84 -46 -241 -126 -289 -69 -40 -152 -20 -188 46 -23 44 -15 145 16 200 34 59
80 105 125 126 48 22 57 23 98 5z" id="node4" class="node"></path>
</g>
<g transform="translate(0.000000,300.000000) scale(0.100000,-0.100000)" fill="#A1A1A1" stroke="none">

<path d="M1462 1588 c-37 -37 14 -92 57 -62 36 26 21 74 -24 74 -12 0 -26 -5
-33 -12z m53 -28 c0 -8 -10 -16 -22 -18 -22 -3 -32 16 -16 32 12 11 38 2 38
-14z" id="node6" class="node"></path>




</g>
</svg>