<?xml version="1.0" encoding="UTF-8" standalone="no"?>
<!-- Created with Inkscape (http://www.inkscape.org/) -->

<svg
   xmlns:dc="http://purl.org/dc/elements/1.1/"
   xmlns:cc="http://creativecommons.org/ns#"
   xmlns:rdf="http://www.w3.org/1999/02/22-rdf-syntax-ns#"
   xmlns:svg="http://www.w3.org/2000/svg"
   xmlns="http://www.w3.org/2000/svg"
   xmlns:sodipodi="http://sodipodi.sourceforge.net/DTD/sodipodi-0.dtd"
   xmlns:inkscape="http://www.inkscape.org/namespaces/inkscape"
   width="8.5in"
   height="11in"
   viewBox="0 0 765 990"
   id="svg2"
   version="1.1"
   inkscape:version="0.91 r13725"
   sodipodi:docname="WoF-Template.svg">
  <defs
     id="defs4" />
  <sodipodi:namedview
     id="base"
     pagecolor="#ffffff"
     bordercolor="#666666"
     borderopacity="1.0"
     inkscape:pageopacity="0.0"
     inkscape:pageshadow="2"
     inkscape:zoom="5.6"
     inkscape:cx="254.4801"
     inkscape:cy="100.25843"
     inkscape:document-units="in"
     inkscape:current-layer="layer1"
     showgrid="false"
     units="in"
     inkscape:window-width="1366"
     inkscape:window-height="707"
     inkscape:window-x="0"
     inkscape:window-y="0"
     inkscape:window-maximized="1" />
  <metadata
     id="metadata7">
    <rdf:RDF>
      <cc:Work
         rdf:about="">
        <dc:format>image/svg+xml</dc:format>
        <dc:type
           rdf:resource="http://purl.org/dc/dcmitype/StillImage" />
        <dc:title />
      </cc:Work>
    </rdf:RDF>
  </metadata>
  <g
     inkscape:label="Layer 1"
     inkscape:groupmode="layer"
     id="layer1"
     transform="translate(0,-62.362205)">
    <path
       id="path3346"
       style="fill:none;stroke:#000000;stroke-width:6.30000019;stroke-miterlimit:4;stroke-dasharray:18.90000057, 18.90000057;stroke-dashoffset:0"
       d="m 720.10445,455.3622 c 10e-6,186.45379 -151.15065,337.60445 -337.60444,337.60446 -186.4538,0 -337.604465,-151.15066 -337.604459,-337.60446 0,-186.45379 151.150669,-337.60445 337.604459,-337.60445 186.45379,1e-5 337.60444,151.15066 337.60444,337.60445 z"
       inkscape:connector-curvature="0"
       sodipodi:nodetypes="sssss" />
    <text
       xml:space="preserve"
       style="font-style:normal;font-variant:normal;font-weight:normal;font-stretch:normal;font-size:116.31845093px;line-height:125%;font-family:'Alfa Slab One';-inkscape-font-specification:'Alfa Slab One';text-align:center;letter-spacing:0px;word-spacing:0px;text-anchor:middle;fill:#000000;fill-opacity:1;stroke:none;stroke-width:1px;stroke-linecap:butt;stroke-linejoin:miter;stroke-opacity:1"
       x="381.82489"
       y="294.49203"
       id="text4462"
       sodipodi:linespacing="125%"><tspan
         sodipodi:role="line"
         id="tspan4464"
         x="381.82489"
         y="294.49203">Wheel</tspan><tspan
         sodipodi:role="line"
         x="381.82489"
         y="439.89011"
         id="tspan4466">of</tspan><tspan
         sodipodi:role="line"
         x="381.82489"
         y="585.28815"
         id="tspan4468">Faction</tspan></text>
    <text
       xml:space="preserve"
       style="font-style:normal;font-variant:normal;font-weight:normal;font-stretch:normal;font-size:58.17041397px;line-height:125%;font-family:'Alfa Slab One';-inkscape-font-specification:'Alfa Slab One';text-align:center;letter-spacing:0px;word-spacing:0px;text-anchor:middle;fill:#000000;fill-opacity:1;stroke:none;stroke-width:1px;stroke-linecap:butt;stroke-linejoin:miter;stroke-opacity:1"
       x="384.16809"
       y="654.19873"
       id="text4470"
       sodipodi:linespacing="125%"><tspan
         sodipodi:role="line"
         id="tspan4472"
         x="384.16809"
         y="654.19873">Cutting</tspan><tspan
         sodipodi:role="line"
         x="384.16809"
         y="726.91174"
         id="tspan4474">Template</tspan></text>
    <g
       id="g5033"
       transform="matrix(1.25,0,0,1.25,-356.65096,577.34587)">
      <g
         id="g5020"
         transform="matrix(0.09929533,0.01185062,0.01185062,-0.09929533,629.47828,286.48827)"
         style="fill:#000000;fill-opacity:1;stroke:none">
        <path
           class="node"
           id="node1"
           d="m 1156,2623 c 3,-16 12,-53 20,-83 7,-30 25,-104 39,-165 14,-60 32,-137 40,-170 8,-33 26,-109 40,-170 14,-60 35,-148 46,-195 11,-47 26,-110 34,-140 8,-30 26,-104 40,-165 14,-60 28,-117 31,-125 3,-11 16,-16 40,-16 30,0 43,-8 75,-42 33,-35 39,-48 39,-86 0,-25 6,-63 14,-83 8,-21 26,-78 41,-128 15,-49 40,-128 56,-174 22,-67 26,-87 16,-102 -9,-15 -8,-24 5,-46 10,-16 22,-27 27,-26 6,2 24,-17 40,-41 42,-61 103,-107 151,-113 169,-23 260,142 184,331 -29,74 -81,128 -183,191 -95,59 -121,85 -191,185 -40,56 -69,89 -77,85 -15,-5 -13,-9 -78,160 -50,128 -89,229 -240,615 -175,448 -208,530 -212,530 -2,0 -1,-12 3,-27 z m 372,-1035 c 33,-33 -10,-86 -54,-66 -42,19 -26,78 21,78 12,0 26,-5 33,-12 z m 243,-431 c 9,-7 24,-27 33,-45 16,-32 16,-33 -8,-57 -36,-36 -61,-32 -85,12 -33,63 10,128 60,90 z m 185,-156 c 74,-34 153,-155 157,-239 2,-62 -18,-107 -60,-133 -70,-43 -157,-17 -211,64 -86,128 -85,267 2,310 41,21 63,20 112,-2 z"
           inkscape:connector-curvature="0"
           style="fill:#000000;fill-opacity:1" />
        <path
           class="node"
           id="node2"
           d="m 1477,1574 c -16,-16 -6,-35 16,-32 12,2 22,10 22,18 0,16 -26,25 -38,14 z"
           inkscape:connector-curvature="0"
           style="fill:#000000;fill-opacity:1" />
        <path
           class="node"
           id="node3"
           d="m 1821,2623 c -7,-16 -26,-64 -43,-108 -16,-44 -62,-163 -102,-265 -146,-370 -166,-422 -166,-435 0,-17 70,-196 82,-210 4,-5 8,1 8,15 0,13 9,58 20,99 10,42 29,117 40,166 12,50 30,128 41,175 11,47 29,121 39,165 10,44 30,130 45,190 14,61 32,136 41,168 17,64 14,83 -5,40 z"
           inkscape:connector-curvature="0"
           style="fill:#000000;fill-opacity:1" />
        <path
           class="node"
           id="node4"
           d="m 1372,1475 c -37,-101 -53,-133 -66,-131 -7,0 -47,-45 -89,-101 -47,-63 -93,-113 -119,-129 C 973,1034 951,1019 921,988 851,918 818,805 834,695 c 9,-57 60,-118 113,-136 87,-28 172,7 236,97 17,24 38,44 46,44 9,0 24,17 34,36 16,32 16,38 3,48 -13,10 -11,24 18,111 18,55 45,141 60,190 15,50 34,109 41,132 7,23 11,50 9,60 -3,10 7,36 21,57 26,38 26,39 11,85 -9,25 -20,62 -24,81 l -8,35 -22,-60 z m -90,-330 c 17,-39 -5,-103 -39,-111 -21,-6 -31,-1 -50,20 l -23,27 20,39 c 28,56 72,68 92,25 z m -149,-139 c 41,-17 63,-42 75,-88 23,-84 -46,-241 -126,-289 -69,-40 -152,-20 -188,46 -23,44 -15,145 16,200 34,59 80,105 125,126 48,22 57,23 98,5 z"
           inkscape:connector-curvature="0"
           style="fill:#000000;fill-opacity:1" />
      </g>
    </g>
    <g
       id="g11576"
       transform="translate(26.785716,11.42857)">
      <rect
         y="895.78009"
         x="63.571426"
         height="45"
         width="45"
         id="rect11358"
         style="fill:#010022;fill-opacity:1;stroke:none;stroke-width:1;stroke-miterlimit:4;stroke-dasharray:2, 1, 0.5, 1;stroke-dashoffset:0" />
      <rect
         y="895.78009"
         x="108.57143"
         height="45"
         width="45"
         id="rect11360"
         style="fill:#382300;fill-opacity:1;stroke:none;stroke-width:1;stroke-miterlimit:4;stroke-dasharray:2, 1, 0.5, 1;stroke-dashoffset:0" />
      <rect
         y="940.78009"
         x="108.57143"
         height="45"
         width="45"
         id="rect11362"
         style="fill:#021700;fill-opacity:1;stroke:none;stroke-width:1;stroke-miterlimit:4;stroke-dasharray:2, 1, 0.5, 1;stroke-dashoffset:0" />
      <rect
         y="940.78009"
         x="63.571426"
         height="45"
         width="45"
         id="rect11364"
         style="fill:#5b0909;fill-opacity:1;stroke:none;stroke-width:1;stroke-miterlimit:4;stroke-dasharray:2, 1, 0.5, 1;stroke-dashoffset:0" />
      <path
         inkscape:connector-curvature="0"
         id="rect5790"
         d="m 63.571428,895.93364 90.000002,0 0,89.99999 -90.000002,0 z"
         style="fill:none;fill-opacity:1;stroke:#000000;stroke-width:1.79999995;stroke-miterlimit:4;stroke-dasharray:none;stroke-dashoffset:0" />
      <path
         inkscape:connector-curvature="0"
         id="path6339"
         d="M 63.571428,985.93364 153.57143,895.93365"
         style="fill:none;fill-rule:evenodd;stroke:#000000;stroke-width:1px;stroke-linecap:butt;stroke-linejoin:miter;stroke-opacity:1" />
      <path
         inkscape:connector-curvature="0"
         id="path11352"
         d="M 153.57143,985.78009 63.571428,895.7801"
         style="fill:none;fill-rule:evenodd;stroke:#000000;stroke-width:1px;stroke-linecap:butt;stroke-linejoin:miter;stroke-opacity:1" />
      <path
         inkscape:connector-curvature="0"
         id="path11354"
         d="m 63.571428,940.78009 90.000002,0"
         style="fill:none;fill-rule:evenodd;stroke:#000000;stroke-width:0.99000001;stroke-linecap:butt;stroke-linejoin:miter;stroke-miterlimit:4;stroke-dasharray:1.98000002, 0.99000001, 0.495, 0.99000001;stroke-dashoffset:0;stroke-opacity:1" />
      <path
         inkscape:connector-curvature="0"
         id="path11356"
         d="m 108.57143,985.78009 0,-89.99999"
         style="fill:none;fill-rule:evenodd;stroke:#000000;stroke-width:1;stroke-linecap:butt;stroke-linejoin:miter;stroke-miterlimit:4;stroke-dasharray:2, 1, 0.5, 1;stroke-dashoffset:0;stroke-opacity:1" />
    </g>
    <g
       id="g11587"
       transform="translate(42.976207,14.285725)">
      <rect
         style="fill:#9a4bf5;fill-opacity:1;stroke:none;stroke-width:1;stroke-miterlimit:4;stroke-dasharray:2, 1, 0.50000000000000000, 1;stroke-dashoffset:0"
         id="rect11366"
         width="45"
         height="45"
         x="212.14285"
         y="892.92297" />
      <rect
         style="fill:#19ff26;fill-opacity:1;stroke:none;stroke-width:1;stroke-miterlimit:4;stroke-dasharray:2, 1, 0.50000000000000000, 1;stroke-dashoffset:0"
         id="rect11368"
         width="45"
         height="45"
         x="257.14288"
         y="892.92297" />
      <rect
         style="fill:#3593ff;fill-opacity:1;stroke:none;stroke-width:1;stroke-miterlimit:4;stroke-dasharray:2, 1, 0.50000000000000000, 1;stroke-dashoffset:0"
         id="rect11370"
         width="45"
         height="45"
         x="257.14288"
         y="937.92291" />
      <rect
         style="fill:#dcf905;fill-opacity:1;stroke:none;stroke-width:1;stroke-miterlimit:4;stroke-dasharray:2, 1, 0.50000000000000000, 1;stroke-dashoffset:0"
         id="rect11372"
         width="45"
         height="45"
         x="212.14285"
         y="937.92291" />
      <path
         style="fill:none;fill-opacity:1;stroke:#000000;stroke-width:1.79999995;stroke-miterlimit:4;stroke-dasharray:none;stroke-dashoffset:0"
         d="m 212.14286,893.0765 90,0 0,89.99996 -90,0 z"
         id="path11374"
         inkscape:connector-curvature="0" />
      <path
         style="fill:none;fill-rule:evenodd;stroke:#000000;stroke-width:1px;stroke-linecap:butt;stroke-linejoin:miter;stroke-opacity:1"
         d="m 212.14286,983.07646 90,-89.99995"
         id="path11376"
         inkscape:connector-curvature="0" />
      <path
         style="fill:none;fill-rule:evenodd;stroke:#000000;stroke-width:1px;stroke-linecap:butt;stroke-linejoin:miter;stroke-opacity:1"
         d="m 302.14286,982.92296 -90,-90"
         id="path11378"
         inkscape:connector-curvature="0" />
      <path
         style="fill:none;fill-rule:evenodd;stroke:#000000;stroke-width:0.99000001;stroke-linecap:butt;stroke-linejoin:miter;stroke-miterlimit:4;stroke-dasharray:1.98000002, 0.99000001, 0.495, 0.99000001;stroke-dashoffset:0;stroke-opacity:1"
         d="m 212.14286,937.92295 90,0"
         id="path11380"
         inkscape:connector-curvature="0" />
      <path
         style="fill:none;fill-rule:evenodd;stroke:#000000;stroke-width:1;stroke-linecap:butt;stroke-linejoin:miter;stroke-miterlimit:4;stroke-dasharray:2, 1, 0.5, 1;stroke-dashoffset:0;stroke-opacity:1"
         d="m 257.14286,982.92296 0,-90"
         id="path11382"
         inkscape:connector-curvature="0" />
    </g>
    <g
       id="g11598"
       transform="translate(44.880992,0)">
      <rect
         y="907.20868"
         x="375"
         height="45"
         width="45"
         id="rect11384"
         style="fill:#ff1d00;fill-opacity:1;stroke:none;stroke-width:1;stroke-miterlimit:4;stroke-dasharray:2, 1, 0.5, 1;stroke-dashoffset:0" />
      <rect
         y="907.20868"
         x="420"
         height="45"
         width="45"
         id="rect11386"
         style="fill:#ff6700;fill-opacity:1;stroke:none;stroke-width:1;stroke-miterlimit:4;stroke-dasharray:2, 1, 0.5, 1;stroke-dashoffset:0" />
      <rect
         y="952.20862"
         x="420"
         height="45"
         width="45"
         id="rect11388"
         style="fill:#eb22ff;fill-opacity:1;stroke:none;stroke-width:1;stroke-miterlimit:4;stroke-dasharray:2, 1, 0.5, 1;stroke-dashoffset:0" />
      <rect
         y="952.20862"
         x="375"
         height="45"
         width="45"
         id="rect11390"
         style="fill:#ff0045;fill-opacity:1;stroke:none;stroke-width:1;stroke-miterlimit:4;stroke-dasharray:2, 1, 0.5, 1;stroke-dashoffset:0" />
      <path
         inkscape:connector-curvature="0"
         id="path11392"
         d="m 375,907.36221 90,0 0,89.99999 -90,0 z"
         style="fill:none;fill-opacity:1;stroke:#000000;stroke-width:1.79999995;stroke-miterlimit:4;stroke-dasharray:none;stroke-dashoffset:0" />
      <path
         inkscape:connector-curvature="0"
         id="path11394"
         d="m 375,997.36221 90,-89.99999"
         style="fill:none;fill-rule:evenodd;stroke:#000000;stroke-width:1px;stroke-linecap:butt;stroke-linejoin:miter;stroke-opacity:1" />
      <path
         inkscape:connector-curvature="0"
         id="path11396"
         d="M 465,997.20866 375,907.20867"
         style="fill:none;fill-rule:evenodd;stroke:#000000;stroke-width:1px;stroke-linecap:butt;stroke-linejoin:miter;stroke-opacity:1" />
      <path
         inkscape:connector-curvature="0"
         id="path11398"
         d="m 375,952.20866 90,0"
         style="fill:none;fill-rule:evenodd;stroke:#000000;stroke-width:0.99000001;stroke-linecap:butt;stroke-linejoin:miter;stroke-miterlimit:4;stroke-dasharray:1.98000002, 0.99000001, 0.495, 0.99000001;stroke-dashoffset:0;stroke-opacity:1" />
      <path
         inkscape:connector-curvature="0"
         id="path11400"
         d="m 420,997.20866 0,-89.99999"
         style="fill:none;fill-rule:evenodd;stroke:#000000;stroke-width:1;stroke-linecap:butt;stroke-linejoin:miter;stroke-miterlimit:4;stroke-dasharray:2, 1, 0.5, 1;stroke-dashoffset:0;stroke-opacity:1" />
    </g>
    <g
       id="g11609"
       transform="translate(26.785777,0)">
      <rect
         style="fill:#d9fffb;fill-opacity:1;stroke:none;stroke-width:1;stroke-miterlimit:4;stroke-dasharray:2, 1, 0.5, 1;stroke-dashoffset:0"
         id="rect11402"
         width="45"
         height="45"
         x="557.85712"
         y="907.20868" />
      <rect
         style="fill:#fdb48b;fill-opacity:1;stroke:none;stroke-width:1;stroke-miterlimit:4;stroke-dasharray:2, 1, 0.50000000000000000, 1;stroke-dashoffset:0"
         id="rect11404"
         width="45"
         height="45"
         x="602.85712"
         y="907.20868" />
      <rect
         style="fill:#fab1ff;fill-opacity:1;stroke:none;stroke-width:1;stroke-miterlimit:4;stroke-dasharray:2, 1, 0.5, 1;stroke-dashoffset:0"
         id="rect11406"
         width="45"
         height="45"
         x="602.85712"
         y="952.20862" />
      <rect
         style="fill:#cbfc99;fill-opacity:1;stroke:none;stroke-width:1;stroke-miterlimit:4;stroke-dasharray:2, 1, 0.50000000000000000, 1;stroke-dashoffset:0"
         id="rect11408"
         width="45"
         height="45"
         x="557.85712"
         y="952.20862" />
      <path
         style="fill:none;fill-opacity:1;stroke:#000000;stroke-width:1.79999995;stroke-miterlimit:4;stroke-dasharray:none;stroke-dashoffset:0"
         d="m 557.85714,907.36221 90,0 0,89.99999 -90,0 z"
         id="path11410"
         inkscape:connector-curvature="0" />
      <path
         style="fill:none;fill-rule:evenodd;stroke:#000000;stroke-width:1px;stroke-linecap:butt;stroke-linejoin:miter;stroke-opacity:1"
         d="m 557.85714,997.36221 90,-89.99999"
         id="path11412"
         inkscape:connector-curvature="0" />
      <path
         style="fill:none;fill-rule:evenodd;stroke:#000000;stroke-width:1px;stroke-linecap:butt;stroke-linejoin:miter;stroke-opacity:1"
         d="m 647.85714,997.20866 -90,-89.99999"
         id="path11414"
         inkscape:connector-curvature="0" />
      <path
         style="fill:none;fill-rule:evenodd;stroke:#000000;stroke-width:0.99000001;stroke-linecap:butt;stroke-linejoin:miter;stroke-miterlimit:4;stroke-dasharray:1.98000002, 0.99000001, 0.495, 0.99000001;stroke-dashoffset:0;stroke-opacity:1"
         d="m 557.85714,952.20866 90,0"
         id="path11416"
         inkscape:connector-curvature="0" />
      <path
         style="fill:none;fill-rule:evenodd;stroke:#000000;stroke-width:1;stroke-linecap:butt;stroke-linejoin:miter;stroke-miterlimit:4;stroke-dasharray:2, 1, 0.5, 1;stroke-dashoffset:0;stroke-opacity:1"
         d="m 602.85714,997.20866 0,-89.99999"
         id="path11418"
         inkscape:connector-curvature="0" />
    </g>
  </g>
</svg>
